<svg viewBox="0 0 100 100" xmlns="http://www.w3.org/2000/svg">
  <defs>
    <linearGradient id="faviconGradient" x1="0%" y1="0%" x2="100%" y2="100%">
      <stop offset="0%" style="stop-color:#00B4D8;stop-opacity:1" />
      <stop offset="50%" style="stop-color:#0077B6;stop-opacity:1" />
      <stop offset="100%" style="stop-color:#03045E;stop-opacity:1" />
    </linearGradient>
  </defs>
  
  <!-- Simplified octopus for favicon -->
  <g transform="translate(50, 45)">
    <path d="M 0,-30 C -20,-30 -35,-15 -35,5 L -35,35 C -35,40 -32,42 -28,42 C -24,42 -22,40 -22,35 L -22,18
             L -13,18 L -13,35 C -13,40 -11,42 -7,42 C -3,42 0,40 0,35 L 0,18
             L 0,18 L 0,35 C 0,40 3,42 7,42 C 11,42 13,40 13,35 L 13,18
             L 22,18 L 22,35 C 22,40 24,42 28,42 C 32,42 35,40 35,35 L 35,5
             C 35,-15 20,-30 0,-30 Z" 
          fill="url(#faviconGradient)"/>
    
    <!-- Eyes -->
    <circle cx="-7" cy="-10" r="3" fill="#FFFFFF"/>
    <circle cx="-7" cy="-10" r="2" fill="#03045E"/>
    
    <circle cx="7" cy="-10" r="3" fill="#FFFFFF"/>
    <circle cx="7" cy="-10" r="2" fill="#03045E"/>
  </g>
</svg>